<svg width="48" height="48" viewBox="0 0 48 48" fill="none" xmlns="http://www.w3.org/2000/svg">
<circle cx="24" cy="24" r="24" fill="#FACD5D"/>
<mask id="mask0_35_103787" style="mask-type:luminance" maskUnits="userSpaceOnUse" x="0" y="0" width="48" height="48">
<circle cx="24" cy="24" r="24" fill="white"/>
</mask>
<g mask="url(#mask0_35_103787)">
<path d="M16.7333 34.8L11.7333 51.1334L10.2666 54.9334C10.2666 54.9334 12.3999 57.6667 17.4666 58.7334C20.9333 59.4667 23.2666 59.5334 24.7999 59.4001C26.0666 59.2667 27.5999 59 26.7999 56.6667C25.6666 53.2 26.0666 51 26.0666 51L27.8666 41.2L16.7333 34.8V34.8Z" fill="#EA9D7D"/>
<path d="M15.9997 43.6001C17.6664 46.1334 20.5997 48.2667 22.2664 49.0667C24.5997 50.2001 26.2664 50.4667 26.2664 50.4667L27.7997 42.3334L16.8664 34.8L16.2664 35.9334L15.7997 37.8C15.5997 37.8 14.4664 41.2667 15.9997 43.6001V43.6001Z" fill="url(#paint0_linear_35_103787)"/>
<path d="M10.6666 55H10.6C10.475 54.9363 10.3974 54.8069 10.4 54.6667L13.5333 45.0667C14.1333 43.0667 15.9333 36.3334 15.9333 36.3334C15.997 36.2084 16.1264 36.1308 16.2666 36.1334C16.3915 36.1971 16.4692 36.3265 16.4666 36.4667L14.0666 45.2C13.5333 47 10.9333 54.7334 10.9333 54.7334C10.9333 54.9334 10.8 55 10.6666 55V55Z" fill="#CF7653"/>
<path d="M18.5996 38.6667L18.733 39L18.9996 38.6667H18.5996Z" fill="#A84D3B"/>
<path fill-rule="evenodd" clip-rule="evenodd" d="M18.4663 38.8L18.5996 38.2L19.133 38.7333L18.4663 38.8ZM22.1996 41.5333V40.8L22.9329 41.2L22.1996 41.5333ZM20.3997 39.6666L20.2663 40.3333L21.0663 40.1333L20.3997 39.6666ZM19.2663 39.5999L19.3997 38.9333L20.0663 39.3999L19.2663 39.5999Z" fill="#A84D3B"/>
<path fill-rule="evenodd" clip-rule="evenodd" d="M17.8662 38.2667L18.1995 37.6L18.6662 38.2667H17.8662ZM22.8662 41.9334L23.1329 42.3334L22.5995 42.4667L22.8662 41.9334ZM22.2662 41.6L21.8662 41.1334L21.6662 41.6667L22.2662 41.6ZM24.5329 42.5333L24.9996 43.0667L24.3329 43.1333L24.5329 42.5333ZM26.9329 43.7334L26.5329 43.2667L26.3329 43.8001L26.9329 43.7334ZM22.9995 41.2L23.4662 41.4L22.9995 41.7334V41.2ZM24.3995 43.4667L24.0662 43.0667L23.7995 43.6L24.3995 43.4667ZM21.3329 40.5334L21.7995 40.7334L21.3329 41.0667V40.5334Z" fill="#A84D3B"/>
<path fill-rule="evenodd" clip-rule="evenodd" d="M17.5333 36.4667L17.2666 36.7333L17.5999 36.8667L17.5333 36.4667ZM19.4666 39.7334L19.7332 39.5334L19.8666 39.9334L19.4666 39.7334ZM25.2666 42.1333L24.6666 41.8666V42.7333L25.2666 42.1333ZM26.5999 42.4L26.0666 42.2667L26.1999 42.9334L26.5999 42.4ZM26.9332 43.4L27.3999 43.4667L27.1332 43.9333L26.9332 43.4ZM25.5999 43.2667L25.3333 42.8667L24.9999 43.3334L25.5999 43.2667ZM27.2666 44.3334L27.1999 44.8L26.7332 44.5334L27.2666 44.3334ZM27 45.7333L27.1333 45.2667L26.6 45.4L27 45.7333ZM25.5999 45.9334L25.8666 45.7334L25.9999 46.1334L25.5999 45.9334ZM26.1333 43.1333L25.8666 43.3333L26.2 43.5333L26.1333 43.1333ZM27.2666 42.6L27.5999 42.6667L27.3333 43L27.2666 42.6ZM26.3999 46.4667L26.1333 46.7333L26.4666 46.8667L26.3999 46.4667ZM24.0666 42.6L24.2666 42.8L23.9333 42.9334L24.0666 42.6ZM22.3333 42.2667L22.4666 41.9334L22.1333 42L22.3333 42.2667ZM23.4 42.6L23.3333 42.8667L23.0666 42.6H23.4ZM24.7333 44.1333L24.8666 44.4667L25.1333 44.2L24.7333 44.1333ZM26.4 43L26.6666 42.8666L26.7333 43.2L26.4 43Z" fill="#A84D3B"/>
<path fill-rule="evenodd" clip-rule="evenodd" d="M16.5995 38.8L16.3995 38.6666L16.3329 38.9333L16.5995 38.8ZM19.2662 39L18.8662 39.2667L19.3329 39.5333L19.2662 39ZM18.1995 39.8V39.4666L18.5995 39.6666L18.1995 39.8ZM23.3995 41.8666L23.7328 41.6666L23.3995 41.4666V41.8666ZM18.5329 41.9333L18.6662 41.7999L18.7995 41.9999L18.5329 41.9333ZM26.3995 42.7333L26.7995 42.4666L26.8662 42.9999L26.3995 42.7333ZM25.6662 42.9333L25.9328 42.8L25.9995 43.1333L25.6662 42.9333ZM26.1995 47.5333L25.9329 47.6666L26.2662 47.8666L26.1995 47.5333ZM25.5995 47L25.5328 46.7333L25.8662 46.8L25.5995 47ZM25.4662 45.1333L25.5329 45.4L25.7995 45.2L25.4662 45.1333ZM26.5328 45.6L26.7328 45.8L26.3995 45.9333L26.5328 45.6ZM17.4662 42.6666L17.5995 42.8L17.7329 42.5333L17.4662 42.6666ZM20.0662 44.1999L19.8662 44.1333V44.3333L20.0662 44.1999ZM19.2661 43.2666L19.3995 43.0666L19.5328 43.2666H19.2661ZM23.9329 45.1999V45.5333L24.3329 45.3999L23.9329 45.1999ZM23.3328 42.4666V42.1333L23.7328 42.3333L23.3328 42.4666ZM26.1995 44.3333L25.9328 44.4L26.1328 44.6666L26.1995 44.3333ZM25.0662 46.8L25.1995 47.0667H24.8662L25.0662 46.8ZM25.4662 43.6L25.5995 43.9333L25.8662 43.6H25.4662ZM26.6662 44.3333L26.4662 44H26.9328L26.6662 44.3333ZM27.1995 42.8L26.9995 43L27.3328 43.1333L27.1995 42.8ZM26.5328 44.7333L26.7995 44.8666L26.5328 45.0666V44.7333ZM17.7329 39.3333L17.9329 39.4666L17.6662 39.6L17.7329 39.3333ZM16.2662 40.6667L16.1995 40.8667L15.9995 40.6667H16.2662Z" fill="#A84D3B"/>
<path fill-rule="evenodd" clip-rule="evenodd" d="M16.9331 36.8666L16.7331 36.7333L16.6664 37.0666L16.9331 36.8666ZM17.5998 37.3333L17.7998 36.9333L18.1331 37.4L17.5998 37.3333ZM17.9998 38.7332L18.1331 39.1999L18.5331 38.7999L17.9998 38.7332ZM18.7998 39.4L18.9331 39.6666L19.1331 39.4H18.7998ZM19.8664 40.2L19.6664 40.3333L19.9331 40.4666L19.8664 40.2ZM20.1331 40.0666L20.3331 39.9333L20.3998 40.1999L20.1331 40.0666ZM20.8664 40.2L20.6664 40.3333L20.9331 40.4666L20.8664 40.2ZM19.7331 41.7999L19.9331 41.9333L19.6664 42.0666L19.7331 41.7999ZM15.9331 39.6666L16.0664 39.9332L16.2664 39.6666H15.9331ZM17.2665 38.3333L17.3998 38.1333L17.4665 38.3999L17.2665 38.3333ZM17.3331 40.6666L17.1331 40.5333V40.8L17.3331 40.6666ZM17.7331 38.1333L17.5998 37.8666H17.9331L17.7331 38.1333ZM18.1998 38.2666L18.3331 38.5333L18.5331 38.2666H18.1998ZM16.5331 37.7333L16.6664 37.5333L16.7331 37.8666L16.5331 37.7333ZM20.4664 40.8666V40.5333L20.7331 40.7333L20.4664 40.8666ZM21.6665 41.1333L21.4665 41.1999L21.5998 41.3999L21.6665 41.1333ZM20.9331 40.6666L21.1331 40.5999L21.0665 40.8666L20.9331 40.6666ZM25.5997 42.5999L25.3997 42.6666L25.5331 42.8666L25.5997 42.5999ZM24.3998 42.1999L24.6665 42.1333L24.5998 42.3999L24.3998 42.1999ZM21.5331 42.6666L21.3998 42.4L21.1998 42.6666H21.5331ZM25.1331 45.7333L25.2664 45.9333H24.9331L25.1331 45.7333ZM21.1331 41.9333L20.9997 41.7333L20.8664 41.9333H21.1331ZM23.1998 41.7333L22.8665 41.8666V41.5999L23.1998 41.7333ZM23.9998 41.7999V42.1332L24.2664 41.9999L23.9998 41.7999ZM24.9331 42.4666L25.1331 42.3999L25.0665 42.7333L24.9331 42.4666ZM24.2664 43.8L24.1331 43.6L23.9998 43.8H24.2664ZM21.6664 43.8666L21.3331 44V43.7333L21.6664 43.8666ZM22.6665 42.9999L22.3998 43.0666L22.5998 43.2666L22.6665 42.9999ZM24.7998 43.3333L24.9331 43.5333H24.6664L24.7998 43.3333Z" fill="#A84D3B"/>
<path d="M32.9331 18.8001C32.9331 18.8001 34.8664 21.9334 35.1997 23.4001C35.5331 24.6667 35.5997 25.9334 35.5997 26.6667C35.5997 29.4667 35.3997 33.4001 35.0664 35.6001C34.3997 39.4001 32.5997 41.6667 30.4664 42.3334C28.3331 43.0001 24.4664 41.6001 21.8664 40.2667C19.6664 39.1334 18.3997 37.9334 18.0664 36.5334C17.7331 35.0667 17.0664 33.2001 17.0664 33.2001L17.1997 28.8667L22.3331 17.9334L32.9331 18.8001V18.8001Z" fill="#EA9D7D"/>
<path d="M19.7333 30.8667C19.7333 30.8667 23.5999 26.5333 26.0666 25.6C30.7999 23.6667 35.3999 23.8667 35.3999 23.8667L34.6666 21.5333L21.1999 19.7333L18.2666 28.1333L19.7333 30.8667V30.8667Z" fill="url(#paint1_linear_35_103787)"/>
<ellipse cx="15.6666" cy="32.4667" rx="3.53333" ry="3.8" fill="#EA9D7D"/>
<path fill-rule="evenodd" clip-rule="evenodd" d="M11.7998 32.4666C11.7998 34.6666 13.5331 36.5333 15.6665 36.5333C17.7998 36.5333 19.5331 34.6666 19.5331 32.4666C19.5331 30.2666 17.7998 28.4 15.6665 28.4C13.5331 28.4 11.7998 30.2 11.7998 32.4666ZM12.3998 32.4666C12.3998 30.5333 13.8665 28.9333 15.6665 28.9333C17.4665 28.9333 18.9332 30.4666 18.9332 32.4666C18.9332 34.3999 17.4665 35.9999 15.6665 35.9999C13.8665 35.9999 12.3998 34.3999 12.3998 32.4666Z" fill="#B76349"/>
<ellipse cx="15.7997" cy="32.4667" rx="1.59999" ry="1.66667" fill="url(#paint2_linear_35_103787)"/>
<path d="M19.5331 30.0667L18.3998 31.0667L17.9331 34.8L18.1331 35.8666C18.1331 35.8666 19.7331 35 19.8664 33.2667C19.9998 31.5333 19.5331 30.0667 19.5331 30.0667V30.0667Z" fill="#EA9D7D"/>
<path d="M28.2665 42.6C27.5332 42.6 26.9332 42.4667 25.5998 42.1333C23.4665 41.6 20.4665 39.9333 18.9332 38.4667C17.4665 37 17.5998 35.6 17.5998 35.5333C17.5998 35.4 17.5998 35.2 17.7332 35.2C17.8665 35.2 17.9332 35.3333 17.9998 35.4667C18.0665 35.7333 18.0665 36.8667 19.2665 38.0667C20.6665 39.4667 23.6665 41.0667 25.6665 41.6C27.7332 42.0667 28.1332 42.2 29.6665 42.0667C31.1332 41.9333 31.9998 41.3333 31.9998 41.3333C32.1998 41.2 32.3998 41.1333 32.2665 41.3333C32.1332 41.4667 31.0665 42.3333 29.7332 42.5333C29.1332 42.6 28.7332 42.6 28.2665 42.6Z" fill="#B76349"/>
<path fill-rule="evenodd" clip-rule="evenodd" d="M29.533 30.0667L28.6664 29.5333L29.6664 29L29.533 30.0667ZM28.9997 32.1333L28.533 32.5333L28.3997 31.9333L28.9997 32.1333ZM22.533 31.9334L22.6663 32.2667H22.1997L22.533 31.9334ZM30.3997 32.9333L31.0663 33.3333L31.133 32.5333L30.3997 32.9333Z" fill="#F4B9A6"/>
<path fill-rule="evenodd" clip-rule="evenodd" d="M29.3999 25.2667L29.1999 25.7334L29.7999 25.6667L29.3999 25.2667ZM29.5332 28.4667L28.6666 29V27.8L29.5332 28.4667ZM31.5332 34.4L30.6666 34.9334V33.8L31.5332 34.4ZM31.5333 33.8667L31.8666 32.9334H30.7333L31.5333 33.8667ZM27.8 32.0667L28.3333 31.9334L28.1333 32.5334L27.8 32.0667ZM28.7333 31.2L28.1333 31.3334L28.5333 31.8L28.7333 31.2ZM28.7999 34.6L28.5999 34.0667L29.2666 34.1334L28.7999 34.6ZM28.8666 35.0667L29.3332 35.3334L29.4666 34.8001L28.8666 35.0667ZM31.0666 36.8667L31.5999 36.6667L31.4666 37.3334L31.0666 36.8667ZM29.4667 28.5334L29.9333 28.6001L29.6666 29.0001L29.4667 28.5334ZM30.3999 26.9334L29.9332 26.8667L30.0666 27.3334L30.3999 26.9334ZM26.4666 28.4667L26.5333 27.8667L27.0666 28.2L26.4666 28.4667ZM27.7999 26.9334L27.3333 27.2667L27.8666 27.6001L27.7999 26.9334ZM25.2666 27.7334H25.5999L25.4666 28.0667L25.2666 27.7334ZM30.6666 36.7334L30.1999 36.8667L30.5333 37.2L30.6666 36.7334ZM29.6666 36.5334L30.1333 36.4L30 36.9334L29.6666 36.5334ZM26.1333 33.4667L25.6666 33.5334L25.9333 34.0001L26.1333 33.4667ZM26.8 34.4667L27.2667 34.3334L27.0667 34.8667L26.8 34.4667ZM25.7333 32.0001L25.6666 32.4001L26.1999 32.2668L25.7333 32.0001ZM27.9333 31.0667L28.1333 31.4667H27.6L27.9333 31.0667ZM33 35.3334L33.2666 35.0667L32.8 35L33 35.3334ZM31.3999 34.0667L31.1333 34.0001L31.3999 33.7334V34.0667ZM34.1333 31.2001L34.3999 31.0667L34.1333 30.9334V31.2001ZM33.0666 32.4667L32.7333 32.4L32.9333 32.1334L33.0666 32.4667Z" fill="#F4B9A6"/>
<path fill-rule="evenodd" clip-rule="evenodd" d="M28.8663 26.7334L29.4663 26.6L28.9997 26.1334L28.8663 26.7334ZM24.333 29.2L24.533 28.8667L24.733 29.2H24.333ZM34.333 31.1334L34.2663 31.4L33.9997 31.2L34.333 31.1334ZM30.6664 33.2667L29.4664 33.6L29.6664 32.2667L30.6664 33.2667ZM28.533 29.0667L28.0664 29.0001L28.133 29.4667L28.533 29.0667ZM24.533 32.0667L25.0664 31.8667V32.2667L24.533 32.0667ZM27.733 27.7333L27.7997 28.3333L28.333 27.9333L27.733 27.7333ZM27.5997 29L27.0664 29.2667L26.9997 28.7333L27.5997 29ZM27.5997 28.3334L27.6663 28.9334L28.1997 28.6L27.5997 28.3334ZM33.0664 27.9333L32.5997 27.7333L33.0664 27.4V27.9333ZM28.5997 30.6L28.333 30.2667L27.9997 30.7333L28.5997 30.6ZM30.3997 36.2667L30.8664 36.1334L30.733 36.6667L30.3997 36.2667ZM28.7996 33.2667L28.6663 33.6H29.133L28.7996 33.2667ZM29.0663 35.2667L29.2663 35.6L28.8663 35.6667L29.0663 35.2667ZM29.933 35.9334L30.1997 35.6667L29.7997 35.5334L29.933 35.9334ZM30.4663 34.8L30.133 35.0667L29.9997 34.6L30.4663 34.8Z" fill="#F4B9A6"/>
<path fill-rule="evenodd" clip-rule="evenodd" d="M30.0665 25.8667L29.7332 26.1333L30.1998 26.2667L30.0665 25.8667ZM32.1331 26.8001L31.6665 26.9334L31.7998 26.4001L32.1331 26.8001ZM28.5998 28.0667L29.0665 28.0001L28.7332 27.6L28.5998 28.0667ZM30.3332 29.8667L30.8665 29.4L31.1332 30.1334L30.3332 29.8667ZM28.7332 30.3334L28.5332 30H28.9999L28.7332 30.3334ZM24.1332 30.9334L23.8665 30.6L23.6665 31.0667L24.1332 30.9334ZM30.1332 32.2667L29.7998 32.5334L29.6665 32.0667L30.1332 32.2667ZM30.4665 34.2667L30.0665 34.6001L29.9332 34.0667L30.4665 34.2667ZM28.8665 32.7333L29.1999 32.9333L29.3332 32.6L28.8665 32.7333ZM32.4665 35.9333L32.8665 35.8667L32.7332 36.2667L32.4665 35.9333ZM30.7332 32.1334L30.5998 32.4667L31.0665 32.4001L30.7332 32.1334ZM31.5332 35.8667L31.7998 36.2L31.3332 36.2667L31.5332 35.8667ZM29.4665 37.5333L29.5332 38L29.9332 37.6667L29.4665 37.5333ZM27.9332 35.5333L28.2665 35.4V35.8L27.9332 35.5333ZM28.9332 36.0667L28.8665 36.4667L28.5999 36.3333L28.9332 36.0667ZM27.3998 35.6667L27.6665 35.8L27.7331 35.3333L27.3998 35.6667ZM25.1332 36.5334L25.2665 36.1334L25.5998 36.4667L25.1332 36.5334ZM26.7332 37.6001H26.3332L26.4665 38.0001L26.7332 37.6001ZM24.9998 38.0667L25.3332 38.1333L25.0665 38.4667L24.9998 38.0667ZM29.1332 31.8667L29.9332 31.6667L29.2665 31L29.1332 31.8667ZM28.5999 30.7333L28.9999 31.3333L29.5332 30.6L28.5999 30.7333ZM25.9331 30.3334L25.5331 30.5334L25.9331 30.7334V30.3334ZM29.8665 30.6667L30.1331 30.4L30.2665 30.8L29.8665 30.6667ZM32.0665 29L31.5999 29.1334L31.6665 28.6L32.0665 29ZM28.3332 29.1333L28.8665 29L28.4665 28.6667L28.3332 29.1333ZM25.9998 27.0667L26.3998 26.8667V27.2667L25.9998 27.0667ZM26.9332 33.1334L26.8665 33.6667L27.4665 33.4667L26.9332 33.1334ZM25.7332 33.0001L26.1999 32.9334L25.9999 33.4001L25.7332 33.0001ZM27.1998 34.9334L27.1332 35.4667L27.6665 35.2667L27.1998 34.9334ZM27.8665 33.5333V33L28.4665 33.2L27.8665 33.5333ZM27.3998 34L27.4665 34.5333L27.9998 34.2L27.3998 34ZM26.7999 32.1334V32.5334L26.3999 32.3334L26.7999 32.1334Z" fill="#F4B9A6"/>
<path fill-rule="evenodd" clip-rule="evenodd" d="M26.8662 27L27.2662 26.8V27.2L26.8662 27ZM31.1995 28.0667L30.9995 27.8001L31.4662 27.7334L31.1995 28.0667ZM33.1996 29.2001L32.7329 29.3334L32.7996 28.8001L33.1996 29.2001ZM34.4662 33.1334L34.8662 32.9334L34.5329 32.6667L34.4662 33.1334ZM30.0662 28.0001V28.4667L30.5996 28.3334L30.0662 28.0001ZM29.4662 27.6L29.5329 27.1333L29.9995 27.4L29.4662 27.6ZM29.8662 31.6001L30.6662 32.1334L30.9329 31.1334L29.8662 31.6001ZM32.6662 31.3334L31.7996 31.6L32.0662 30.5334L32.6662 31.3334ZM29.6662 32.0667L29.9329 32.1334L29.8662 31.8001L29.6662 32.0667ZM29.1329 30.5333L29.2662 30.2L29.5995 30.5333H29.1329ZM30.0662 29.2001L29.5996 29.2667L29.8662 29.6667L30.0662 29.2001ZM31.0662 29.4667L31.5329 29.4L31.3329 29.8667L31.0662 29.4667Z" fill="#F4B9A6"/>
<path fill-rule="evenodd" clip-rule="evenodd" d="M31.1998 26.2667L31.4665 25.7334H30.7998L31.1998 26.2667ZM29.7332 30.0667L30.7332 29.5334L29.6665 28.8667L29.7332 30.0667ZM30.6665 33.4L30.4665 33.8666L30.0665 33.4H30.6665ZM29.5998 31.3333L30.4665 30.8667L29.5331 30.2667L29.5998 31.3333ZM30.4665 27.6666L30.1331 27.4L30.5998 27.2666L30.4665 27.6666ZM31.1998 28.1333L30.7332 28.8666L31.7331 28.9333L31.1998 28.1333ZM31.6665 27.4667L31.8665 27.2L32.1331 27.5334L31.6665 27.4667ZM32.3331 30.0666L32.5998 30.3333L32.7332 29.9333L32.3331 30.0666ZM30.8665 27.0666L31.0665 26.8L31.3332 27.1333L30.8665 27.0666ZM25.1331 30.7334L24.6665 30.8667L25.0665 31.2667L25.1331 30.7334ZM25.5998 29.1333L25.7998 28.7333L26.1332 29.1333H25.5998ZM26.7998 28.7334L26.7332 28.3334L26.3998 28.6667L26.7998 28.7334ZM26.1998 30.4667L26.2665 30.8667L25.7998 30.8L26.1998 30.4667Z" fill="#F4B9A6"/>
<path fill-rule="evenodd" clip-rule="evenodd" d="M21.5332 21.1333V20.4L22.1999 20.7333L21.5332 21.1333ZM34.3332 22.2L34.5332 22.4L34.5999 22.0666L34.3332 22.2ZM33.3332 22.7333L33.1332 22.5333L33.4666 22.4L33.3332 22.7333ZM28.0665 23.0666L28.1332 22.7333L28.3332 23.0666H28.0665ZM28.0666 23.3333L28.2666 23.6L27.9999 23.6667L28.0666 23.3333ZM30.8666 23.1333L30.6665 22.9333L30.5332 23.2L30.8666 23.1333ZM34.1999 22.5333L33.9332 22.5999L33.9999 22.2666L34.1999 22.5333ZM28.9332 23.1333L28.7332 22.9333L28.5998 23.2L28.9332 23.1333ZM31.7999 22.7333L32.0665 22.9333L31.7332 23.0666L31.7999 22.7333ZM27.7332 23.2667L27.5332 23L27.3999 23.3333L27.7332 23.2667ZM25.6665 22.2L25.5332 22.5333L25.9332 22.4666L25.6665 22.2ZM22.9332 21.5333V21.2L23.2665 21.4L22.9332 21.5333ZM22.7998 22.4666L22.7332 22.7999L23.1332 22.6666L22.7998 22.4666ZM23.1999 23.6L23.1332 23.2L23.5332 23.3333L23.1999 23.6ZM26.3332 22.6666L26.0666 22.4666L25.9332 22.7333L26.3332 22.6666ZM26.5999 22.8666L26.5332 22.3999L27.0666 22.5333L26.5999 22.8666Z" fill="#A84D3B"/>
<path fill-rule="evenodd" clip-rule="evenodd" d="M23.1998 21.3333L23.2665 21.7999L23.7998 21.5333L23.1998 21.3333ZM23.8665 22L23.9998 22.5333L24.4665 22.1333L23.8665 22ZM27.7998 23L27.5998 22.6666H28.0665L27.7998 23ZM30.2665 23.0666L30.0665 22.7999L30.5332 22.7333L30.2665 23.0666ZM31.2665 23.0666L31.0665 22.7333L31.5331 22.6666L31.2665 23.0666ZM28.9998 22.7333L29.1331 23.2L29.5998 22.8667L28.9998 22.7333ZM24.9999 22.6666L24.8665 22.4L25.2665 22.4666L24.9999 22.6666ZM23.6665 23.6L23.5998 23.9333L23.9332 23.8L23.6665 23.6ZM23.2665 24.1333L23.3332 23.8666L23.5998 24.0666L23.2665 24.1333ZM25.6665 22.6L25.7998 22.7333L25.8665 22.6H25.6665ZM27.2665 22.9333L27.1332 22.8L27.3998 22.7333L27.2665 22.9333ZM29.6665 22.9999L29.7332 23.1333L29.8665 22.9999H29.6665ZM22.7999 24.1333L22.9999 24.0666L22.9332 24.2666L22.7999 24.1333ZM22.8665 23.8L23.1331 23.7333L23.0665 24L22.8665 23.8Z" fill="#A84D3B"/>
<path fill-rule="evenodd" clip-rule="evenodd" d="M22.6 21.7334V21.5334L22.8666 21.6667L22.6 21.7334ZM23.5333 21.9333L23.2666 21.8L23.5333 21.6V21.9333ZM22.8666 23.4667L22.9333 23.8L22.5333 23.7334L22.8666 23.4667ZM25.1999 22.3333L25.4666 22.4L25.3999 22.0666L25.1999 22.3333ZM23.1999 22.3333L23.4666 22.4L23.3999 22.0666L23.1999 22.3333ZM23.1333 24.9333V24.7333L23.3333 24.8667L23.1333 24.9333ZM22.5333 22.2L22.2666 22.2667L22.4666 22.4667L22.5333 22.2ZM22.5999 24.5334V24.0667L23.0666 24.2667L22.5999 24.5334Z" fill="#A84D3B"/>
<path fill-rule="evenodd" clip-rule="evenodd" d="M22.3998 20.8L22.4664 21.3334L22.9331 21.2L22.3998 20.8ZM22.9331 22L22.7331 22.2L22.6665 21.9333L22.9331 22ZM22.9998 24.6L22.7331 24.8L22.6665 24.4667L22.9998 24.6ZM22.3332 22.9334L22.5998 22.7333L22.1998 22.5333L22.3332 22.9334ZM24.0664 22.8667L23.8664 22.7333L24.1331 22.6L24.0664 22.8667ZM22.7331 25.5333L22.9998 25.4L22.7331 25.2V25.5333ZM21.9998 27V26.6666L22.2665 26.8666L21.9998 27ZM21.9998 22.1333L21.7998 21.9333L22.1331 21.8L21.9998 22.1333ZM24.4665 21.8L24.5998 22.4L25.1331 22.0667L24.4665 21.8ZM22.1998 21.7333L21.9998 21.5333L22.3331 21.4667L22.1998 21.7333ZM26.1331 23.0666L26.4665 23.2L26.3998 22.8666L26.1331 23.0666ZM32.7332 23L32.4665 22.8666L32.7332 22.6666V23ZM22.5331 23.5334L22.9998 23.3334L22.5331 22.9334V23.5334ZM21.8665 21.2667L22.1331 20.8L22.3998 21.3334L21.8665 21.2667Z" fill="#A84D3B"/>
<path fill-rule="evenodd" clip-rule="evenodd" d="M21.6001 21.4001L21.8668 21.2667V21.6001L21.6001 21.4001ZM23.2001 22.8001L23.4667 22.8667L23.2667 23.0667L23.2001 22.8001ZM24.2667 21.8001L24.2001 22.0667L24.4667 22.0001L24.2667 21.8001ZM22.0667 21.8667L22.5334 22.0667L22.0667 22.4V21.8667Z" fill="#A84D3B"/>
<path fill-rule="evenodd" clip-rule="evenodd" d="M22.5998 21.3333L22.7332 21.6L22.8665 21.3333H22.5998ZM21.8665 21.5333L21.7998 21.7333L22.0665 21.6667L21.8665 21.5333ZM23.7331 21.5333L24.0664 21.8L23.6664 22L23.7331 21.5333Z" fill="#A84D3B"/>
<path fill-rule="evenodd" clip-rule="evenodd" d="M15.8667 30.9334L16.2 30.8667L16.0667 31.2L15.8667 30.9334ZM17.3334 32.5334V32.8L17.0667 32.6L17.3334 32.5334Z" fill="#964C38"/>
<path fill-rule="evenodd" clip-rule="evenodd" d="M15.1333 31L15.5333 30.8667L15.4666 31.3333L15.1333 31ZM15.8 31.3334L16.1333 30.9334L16.3333 31.4667L15.8 31.3334ZM17.2666 31.8L17.0666 32L17.3333 32.0667L17.2666 31.8ZM16.4666 31.7334L16.6666 31.5334L16.7333 31.8001L16.4666 31.7334Z" fill="#964C38"/>
<path fill-rule="evenodd" clip-rule="evenodd" d="M15.3999 31.6L15.5999 31.4L15.6666 31.6667L15.3999 31.6ZM16.9332 32.2L17.0666 32L17.1999 32.2667L16.9332 32.2Z" fill="#964C38"/>
<path fill-rule="evenodd" clip-rule="evenodd" d="M15 31.5334L15.2666 31.2667L15.4666 31.7334L15 31.5334ZM16.5333 32.5334L16.3333 32.4667L16.6 32.3334L16.5333 32.5334ZM17.1333 31.6L17.0667 31.7334H17.2667L17.1333 31.6ZM17.2 32.4L17.2667 32.2667L17.4 32.4H17.2Z" fill="#964C38"/>
<path fill-rule="evenodd" clip-rule="evenodd" d="M16.4667 30.9334L16.2667 31.1334L16.2001 30.8667L16.4667 30.9334ZM14.6001 31.4001L14.8667 31.1334L15.0001 31.5334L14.6001 31.4001ZM15.3334 32.3333L15.2667 32.2H15.4001L15.3334 32.3333ZM15.7335 32.6L15.6001 32.6667L15.8001 32.7334L15.7335 32.6ZM15.5334 31.1333L15.3334 31.2667L15.6001 31.3333L15.5334 31.1333ZM15.0001 31.2L15.2001 31.2667L15.0001 31.4667V31.2Z" fill="#964C38"/>
<path fill-rule="evenodd" clip-rule="evenodd" d="M16.4667 31.4666L16.5333 31L16.9333 31.3333L16.4667 31.4666ZM15.2 31.2667V31.0667L15 31.1333L15.2 31.2667ZM16.8 31.6L16.9334 31.8L17.0667 31.5333L16.8 31.6Z" fill="#964C38"/>
<path fill-rule="evenodd" clip-rule="evenodd" d="M15.9332 30.8667L15.7332 30.8001V31.0001L15.9332 30.8667ZM16.5332 31.4667L16.3332 31.2667L16.5999 31.2L16.5332 31.4667ZM14.5999 32.1333L14.7332 31.9333L14.7999 32.1333H14.5999ZM15.6666 32.2001L15.5332 32.0667L15.7999 32.0001L15.6666 32.2001ZM16.0665 32.8667L15.9332 33.0667L16.1999 33.1334L16.0665 32.8667ZM14.5332 31.6667L14.6666 31.4667L14.7999 31.6667H14.5332Z" fill="#964C38"/>
<path fill-rule="evenodd" clip-rule="evenodd" d="M14.7332 31.8001H14.5332L14.5999 31.6001L14.7332 31.8001ZM15.0666 32.8L15.2666 32.8667L15.1332 33.0667L15.0666 32.8Z" fill="#964C38"/>
<path fill-rule="evenodd" clip-rule="evenodd" d="M15.6 31.0667L15.6666 31.2667L15.8666 31.1334L15.6 31.0667ZM16 31.5334L15.8 31.6L16 31.8V31.5334ZM14.6 31.8666L14.5333 31.6666L14.4667 31.8666H14.6ZM14.4666 32.5333L14.4 32.3333L14.3333 32.6L14.4666 32.5333ZM14.9333 31.8666V31.6666L15.1333 31.7333L14.9333 31.8666ZM14.5333 32.2666L14.4 32L14.2666 32.2666H14.5333ZM14.6666 32.5333V32.3333L14.8666 32.4L14.6666 32.5333ZM17 32.7333L16.9333 32.5333L17.2 32.6L17 32.7333ZM16.1332 31.6L16.2666 31.8L16.0666 31.8667L16.1332 31.6Z" fill="#964C38"/>
<path fill-rule="evenodd" clip-rule="evenodd" d="M34.4665 25.9333C34.5332 26 34.6665 26 34.7332 26C34.8665 26 34.9998 25.9333 35.1332 25.8C35.2603 25.5754 35.2035 25.2917 34.9998 25.1333C34.1761 24.5449 33.1445 24.7874 32.8679 24.8525C32.8311 24.8611 32.8076 24.8666 32.7998 24.8666C32.5331 24.9333 32.3998 25.2 32.4665 25.4666C32.5331 25.7333 32.7998 25.8666 33.0665 25.8C33.0761 25.8 33.1012 25.7944 33.1386 25.786C33.3593 25.7367 34.0104 25.5912 34.4665 25.9333ZM24.5998 27.3333C24.6664 27.4 24.7998 27.4 24.8664 27.4C24.964 27.4 25.0616 27.3642 25.1854 27.3189C25.2307 27.3024 25.2795 27.2845 25.3331 27.2666C25.3331 27.2 26.1331 26.0666 27.9331 26.2C28.1998 26.2 28.4664 26 28.4664 25.7333C28.4664 25.4666 28.2664 25.2 27.9998 25.2C25.7666 25.0139 24.6878 26.3863 24.4949 26.6316C24.4805 26.65 24.4711 26.662 24.4664 26.6666C24.3393 26.8912 24.3961 27.1749 24.5998 27.3333Z" fill="#AF361A"/>
<ellipse cx="27.2663" cy="30" rx="0.933342" ry="0.933336" fill="#4F2B23"/>
<ellipse cx="34.1999" cy="29.5334" rx="0.933342" ry="0.933331" fill="#4F2B23"/>
<path d="M31.1334 35.6667C30.9334 35.6667 30.7334 35.5333 30.6667 35.2667C30.6001 35 30.8001 34.7333 31.0667 34.7333C31.0667 34.7333 31.8001 34.6 31.8667 34C31.9334 33.4 31.3334 31.7333 31.0001 30.8667C30.8667 30.6 31.0001 30.3333 31.2667 30.2667C31.5334 30.1333 31.8001 30.2667 31.8667 30.5333C32.0001 30.8 32.8667 33.0667 32.8001 34.1333C32.7334 35.1333 31.8001 35.6667 31.2667 35.7333C31.2001 35.6667 31.1334 35.6667 31.1334 35.6667V35.6667Z" fill="#B4603F"/>
<path d="M28.8666 38.4667V38.4667C26.3332 38.3334 25.2666 36.5334 24.9999 35.5334C24.9332 35.2667 25.0666 35 25.3332 34.9334C25.5999 34.8667 25.8666 35 25.9332 35.2667C25.9332 35.3334 26.4666 37.3334 28.8666 37.4667C29.1333 37.4667 29.3333 37.7334 29.3333 37.9334C29.3333 38.2667 29.1333 38.4667 28.8666 38.4667V38.4667Z" fill="#CF7653"/>
<path fill-rule="evenodd" clip-rule="evenodd" d="M24.5332 31.0667C24.5332 33.4667 25.9999 35.4667 27.8665 35.4667C29.6666 35.4667 31.1999 33.4667 31.1999 31.0667C31.1999 28.6667 29.6666 26.6667 27.8665 26.6667C26.0665 26.6667 24.5332 28.6667 24.5332 31.0667ZM25.1999 31.0667C25.1999 29 26.3999 27.3334 27.8665 27.3334C29.3332 27.3334 30.5332 29 30.5332 31.0667C30.5332 33.1334 29.3332 34.8 27.8665 34.8C26.3999 34.8 25.1999 33.1334 25.1999 31.0667Z" fill="white"/>
<path fill-rule="evenodd" clip-rule="evenodd" d="M30.4001 29.8L31.0001 30.1334C31.0001 30.1334 31.2001 29.7334 31.4668 29.8C31.8668 29.8 32.2001 30.0667 32.2001 30.0667L32.6001 29.5334C32.6001 29.4667 32.1334 29.1334 31.4668 29.1334C30.8001 29.1334 30.4001 29.8 30.4001 29.8ZM19.8248 29.298L19.7114 29.9553L24.7114 30.822L24.8248 30.1647L19.8248 29.298Z" fill="white"/>
<path d="M17.8665 14.3334C17.8665 14.3334 14.5331 13 11.8665 17.6667C8.93312 22.8667 12.7331 29.7334 12.7331 29.7334C12.7331 29.7334 13.8665 28.0667 16.0665 28.4C17.8665 28.6667 18.3998 29.6667 18.9331 30.2667C19.4664 30.8 21.5998 30.3334 22.3331 27.8667C22.8664 25.9334 22.8664 24.0667 22.1998 22.7334C21.5331 21.4 20.9331 19.8667 21.8664 20.5334C22.7998 21.2 24.3998 22.0667 26.8664 22.4667C29.3331 22.8667 34.0664 23.2667 36.4664 21.2C38.8664 19.2 38.9998 17.4667 38.9331 16.0667C38.8664 14.6667 38.1331 13.8667 38.1331 13.8667C38.1331 13.8667 36.7998 14.6 36.1331 14.6667C35.4664 14.7334 34.9331 14.8 34.9998 13.9334C35.1331 11.9334 33.9998 11.2667 33.9998 11.2667C33.9998 11.2667 33.5331 11.8667 32.9998 12.2C31.8664 12.8667 31.1998 12.9334 30.0664 12.5334C28.5998 12.0667 27.0664 10.7334 24.0664 10.6667C21.9331 10.7334 19.5331 11.8667 17.8665 14.3334V14.3334Z" fill="#C94112"/>
<path fill-rule="evenodd" clip-rule="evenodd" d="M25.7334 11.7334L25.4667 10.9334L26.4 11.1334L25.7334 11.7334ZM32.5334 13.3334L31.8667 12.8001L32.2668 12.6667L32.7334 12.4667L32.5334 13.3334ZM34 11.4001L33.6 11.9334L34.2667 12.0001L34 11.4001ZM30.6668 14.2668L31.4001 13.7334V14.8001L30.6668 14.2668ZM29.0667 12.7334L28.8667 13.0667L29.3334 13.1334L29.0667 12.7334ZM23.1334 11.6667L23.4 11.2L23.7334 11.8L23.1334 11.6667ZM24.0001 11.7334L23.8001 12.2668L24.3334 12.3334L24.0001 11.7334ZM23.3334 12.6667L22.7334 12.0001L23.8667 11.8001L23.3334 12.6667Z" fill="#FF593E"/>
<path fill-rule="evenodd" clip-rule="evenodd" d="M22.7336 12L22.0669 11.4667L22.9336 11.1334L22.7336 12ZM24.2669 12.1334L25.0002 12.0667L24.6002 12.8667L24.2669 12.1334ZM32.4002 14.6667L32.1335 14.8667L32.4002 15.0667V14.6667ZM29.7336 13.4667L30.0002 13.2667L30.0669 13.6667L29.7336 13.4667ZM30.6002 14L30.8669 13.6667L30.4002 13.5334L30.6002 14ZM33.6669 14.6001L33.9336 14.4001L34.0003 14.7334L33.6669 14.6001ZM33.0669 13.6L32.7335 13.2667L32.5335 13.8L33.0669 13.6ZM34.1336 12.1334L34.4669 12.4667L33.9336 12.7334L34.1336 12.1334Z" fill="#FF593E"/>
<path fill-rule="evenodd" clip-rule="evenodd" d="M25.0665 11.2667L24.5998 10.8667L24.3998 11.5334L25.0665 11.2667ZM28.3332 12.1334L27.9332 11.7334L27.7332 12.3334L28.3332 12.1334ZM30.3332 12.7333L30.0665 13.2L29.7332 12.6667L30.3332 12.7333ZM30.6665 13.4667L30.3332 13.1334L30.1332 13.6667L30.6665 13.4667ZM31.8666 13.8L32.1999 14.1333L31.6666 14.4L31.8666 13.8ZM30.2665 14.0001L30.6665 14.3334L30.0665 14.6001L30.2665 14.0001ZM28.7999 12.2667L29.1999 12.6L28.6665 12.8L28.7999 12.2667ZM24.3332 11.2L23.8665 11.6667L23.6665 10.9333L24.3332 11.2ZM26.8665 11.4667L26.5332 11.1333L26.3332 11.7333L26.8665 11.4667ZM25.3332 11.9334L24.8665 11.4L25.7332 11.2L25.3332 11.9334Z" fill="#FF593E"/>
<path fill-rule="evenodd" clip-rule="evenodd" d="M24.9334 10.8L25.4001 10.9333L25.0001 11.2667L24.9334 10.8ZM22.6001 10.8667L23.0668 11.4001L23.4668 10.8001L22.6001 10.8667ZM24.8001 12.2001L24.4001 11.6001L25.2001 11.4001L24.8001 12.2001ZM25.0668 12.6667L24.9334 12L25.7334 12.2L25.0668 12.6667ZM33.3335 12.8L33.2668 12.2L32.7335 12.5334L33.3335 12.8ZM30.6001 13.5333L30.3334 12.8667L31.1334 13L30.6001 13.5333ZM29.1334 12.3334L29.3334 13.0667L29.8668 12.6L29.1334 12.3334ZM28.4001 12.6L28.2668 11.8667L29.0001 12.2L28.4001 12.6Z" fill="#FF593E"/>
<path fill-rule="evenodd" clip-rule="evenodd" d="M23.4666 10.8001L23.9333 10.9334L23.5333 11.3334L23.4666 10.8001ZM22.2666 11.0667H22.7332L22.5332 11.5334L22.2666 11.0667ZM31.8 16.2667L31.6 16.4667L31.8666 16.6001L31.8 16.2667ZM33 15.3334L33.2 15.4667L32.9333 15.6L33 15.3334ZM32.7333 14.3334L32.8666 14.6667L33.0666 14.4L32.7333 14.3334ZM29.6666 13.3334L29.5333 13H29.8666L29.6666 13.3334ZM32.1333 15.3334L31.9333 15.5334L32.2 15.6L32.1333 15.3334ZM24.7999 15.6L24.9999 15.4L25.0666 15.6667L24.7999 15.6ZM32.0666 13L31.6 13.4L32.2 13.7334L32.0666 13ZM31.1999 15.8001L31.4666 15.9334L31.1999 16.0667V15.8001ZM31.6666 15.2667L31.8666 15.3333L31.7999 15.0667L31.6666 15.2667ZM30.2666 15.2667L29.8666 15.2L30.1333 14.8L30.2666 15.2667Z" fill="#FF593E"/>
<path fill-rule="evenodd" clip-rule="evenodd" d="M24.4002 11.3333L24.6669 10.9333L24.0669 10.8667L24.4002 11.3333ZM27.6002 11.6667L27.3335 12.0667L27.0002 11.4667L27.6002 11.6667ZM31.8002 12.8667L31.6002 13.4001L31.1335 12.9334L31.8002 12.8667ZM29.6002 15.8V15.5334L29.8669 15.7334L29.6002 15.8ZM31.0669 13.8L31.3336 13.4L30.8002 13.2667L31.0669 13.8ZM32.4002 16.6001V16.3334L32.6669 16.5334L32.4002 16.6001ZM30.8669 16.3334L30.5336 16.4001L30.7336 16.6001L30.8669 16.3334ZM25.7336 16.8667L26.0669 16.8001L25.9336 17.1334L25.7336 16.8667ZM29.8002 16.9333L29.9335 17.2L30.0669 16.9333H29.8002ZM33.6002 14.0667L33.4002 13.7334L33.8002 13.6667L33.6002 14.0667ZM28.8669 16.5334L29.0669 16.2H28.6669L28.8669 16.5334ZM26.2669 11.4667L26.8669 11.4L26.6002 12.0667L26.2669 11.4667ZM30.0669 14.1334L30.3336 13.6H29.6669L30.0669 14.1334ZM25.5335 14.7333L26.0669 14.4V15.0667L25.5335 14.7333ZM28.0002 15.2667L27.5335 15.5334L28.0002 15.8V15.2667ZM26.3336 15.8667L26.2003 15.6667L26.4669 15.6L26.3336 15.8667Z" fill="#FF593E"/>
<path fill-rule="evenodd" clip-rule="evenodd" d="M27.7334 11.8667L26.9333 12.2667L27.6 12.8667L27.8667 12.4667L27.7334 11.8667ZM24.6 12.7334L24.4667 13.4L25.2 13.1334L24.6 12.7334ZM24.9333 14.2L25.0666 14L25.2 14.2H24.9333ZM27.0667 15.8667L27.2667 15.9334L27.0667 16.0667V15.8667ZM26.5333 14.8667L26.3333 15.2L26.8 15.2667L26.5333 14.8667ZM28 17.2667L28.2 17.3333L28.0667 17.5333L28 17.2667ZM24.1333 15.9334L24 15.4L24.6 15.5334L24.1333 15.9334ZM26.5333 13L27.0667 12.7334L27.2 13.0667L27 13.4667L26.5333 13Z" fill="#FF593E"/>
<path fill-rule="evenodd" clip-rule="evenodd" d="M26.4002 11.8L26.0002 11.6667L25.5336 11.8L25.9336 12.4667L26.4002 11.8ZM26.2668 12.2667L27.3335 12.4001L26.6669 13.1334L26.2668 12.2667ZM27.1335 13.6L26.6669 13.3334L26.2668 13.4L26.4002 14.3334L27.1335 13.6ZM23.6669 15.4L23.0669 15.7333L23.7336 16.0667L23.6669 15.4ZM28.9335 13.1334L29.8002 13.3334L29.0669 14.0667L28.9335 13.1334Z" fill="#FF593E"/>
<path d="M30.1333 13.9333L29.2666 13.7333L29.3999 14.6667L30.1333 13.9333Z" fill="#FF593E"/>
<path fill-rule="evenodd" clip-rule="evenodd" d="M24.0002 12.4L24.4668 13.0667L23.4668 13.2L24.0002 12.4ZM25.0001 13.1333L25.4001 12.8L25.8668 13.4667L24.8668 13.5333L25.0001 13.1333ZM29.3335 14.2667L29.6669 14.8L28.9335 14.8667L29.3335 14.2667ZM25.1335 14.0001L24.5335 13.6667L24.4001 14.4667L25.1335 14.0001ZM28.5335 15.0667L28.8001 14.4667L28.0001 14.4L28.5335 15.0667ZM27.7335 14.8667L27.1335 15.1334L27.2668 14.3334L27.7335 14.8667ZM32.8001 13.2L33.2668 13.0667L32.8668 12.6667L32.8001 13.2ZM23.9335 15.1333L23.3335 15.3333L23.4668 14.6L23.9335 15.1333Z" fill="#FF593E"/>
<path fill-rule="evenodd" clip-rule="evenodd" d="M33.6667 12.4668L33.3334 12.1334L33.8667 11.9334L33.6667 12.4668ZM21.2 15.0001L20.7334 15.2001L20.8667 14.6001L21.2 15.0001ZM26.9334 14.7334L26.8001 14.1334L26.2001 14.5334L26.9334 14.7334ZM26.0001 12.5334L26.8668 12.8001L26.1334 13.4668L26.0001 12.5334ZM28.8668 12.9334L28.0001 12.7334L28.1334 13.6668L28.8668 12.9334ZM27.8667 13.7334L28.6667 13.9334L27.9334 14.6668L27.8667 13.7334ZM27.6667 13.8001L27.2 14.0667L27.6 14.4667L27.6667 13.8001ZM25.5334 15.4667L25.7334 15.6667L25.4667 15.7334L25.5334 15.4667Z" fill="#FF593E"/>
<path fill-rule="evenodd" clip-rule="evenodd" d="M27.9998 12.8001L28.0665 12.4667L28.3331 12.6667L27.9998 12.8001ZM26.8665 14.1334L26.9999 14.4667L27.2665 14.1334H26.8665ZM25.3332 14.8668L24.9999 14.4668L24.7999 15.0668L25.3332 14.8668ZM28.9998 14.2001L28.7998 13.6667L28.3331 14.1334L28.9998 14.2001ZM25.9331 13.5334L26.4665 13.7334L25.9331 14.2V13.5334Z" fill="#FF593E"/>
<path fill-rule="evenodd" clip-rule="evenodd" d="M27.7333 12.8001L27.5333 13.0001H27.8L27.7333 12.8001ZM27.4 13.1334L28 13V13.8667L27.3333 13.4L27.4 13.1334ZM24.2667 13L24.7333 13.2L24.2667 13.6V13ZM25.4 13.5333L25.9333 13.8L25.4 14.2V13.5333ZM28.6667 13.5334L28.6 13.3334L28.3333 13.5334H28.6667ZM29.4 16.4001V16.0667L29.7333 16.2667L29.4 16.4001ZM28.0667 16.5334L28.2 16.8L28.3333 16.5334H28.0667ZM29 15.6667L28.6667 15.8V15.5334L29 15.6667ZM27.8666 14.2667L27.9333 13.9334L27.5333 14.0001L27.8666 14.2667ZM28.1333 14.4667L28.2667 14.2667L28.4667 14.4667H28.1333ZM27.1334 15.3334L27 15.6H27.2667L27.1334 15.3334ZM28.8667 12.9334L29 13.0667L28.7333 13.2001L28.8667 12.9334ZM31.2 15.1334L31.2667 14.8L30.9334 14.8667L31.2 15.1334ZM30.6667 15.6001L30.6 15.8667L30.3333 15.6001H30.6667ZM24.2667 16.8L24.3333 16.4667L24 16.5334L24.2667 16.8ZM30.4667 14.8001L30.4 14.4001L30.8667 14.5334L30.4667 14.8001Z" fill="#FF593E"/>
<path fill-rule="evenodd" clip-rule="evenodd" d="M25.5335 13.1334L25.1335 12.6667L25.8002 12.4667L25.5335 13.1334ZM28.3335 13.7334L28.2669 13.4001L28.6669 13.5334L28.3335 13.7334ZM30.6669 15.2001L30.5336 15.0001L30.4002 15.2667L30.6669 15.2001ZM23.5336 17.0001L23.7336 17.2001L23.4002 17.2667L23.5336 17.0001ZM28.2669 15.0667L28.0002 15.1334L28.2669 15.3334V15.0667ZM27.8002 14.5334L27.8669 14.8001L27.6002 14.7334L27.8002 14.5334ZM13.2669 15.8001L14.2002 16.1334L14.1335 15.0001L13.2669 15.8001ZM22.7336 16.0001L23.0669 15.9334L22.9336 16.2668L22.7336 16.0001ZM20.8669 13.8667L20.1335 14L20.6669 14.6667L20.8669 13.8667ZM18.7336 15.4668L18.9336 15.7334H18.5336L18.7336 15.4668ZM21.4669 16.2001L21.2669 15.8001L20.9336 16.1334L21.4669 16.2001ZM15.9335 16.1334V15.4667L16.6669 15.8667L15.9335 16.1334ZM22.0003 12.7334V13.4001L22.6669 13.1334L22.0003 12.7334ZM23.1336 13.0667L23.2002 12.6667L23.6002 12.8667L23.1336 13.0667ZM23.0669 13.4667V13.8667L23.4669 13.7334L23.0669 13.4667ZM11.3336 19.0668L11.7336 18.0668L12.2669 19.0001L11.3336 19.0668ZM11.2669 19.1334L11.0669 20.0001L11.8669 19.6001L11.2669 19.1334ZM13.1336 20.8001V20.4001L13.5336 20.6668L13.1336 20.8001ZM12.2002 20.3334V20.6667L12.6002 20.5334L12.2002 20.3334ZM18.0003 14.4001L18.2669 13.8667L18.6669 14.4001H18.0003ZM17.1335 15.9334L17.0002 15.6667L16.7335 15.9334H17.1335ZM16.6669 16.0001L16.9335 16.5334L16.2669 16.4668L16.6669 16.0001ZM21.5335 14.2668L21.2669 14.8668H22.0002L21.5335 14.2668ZM20.0003 16.2V15.8667L20.3336 16.0667L20.0003 16.2Z" fill="#FF593E"/>
<path fill-rule="evenodd" clip-rule="evenodd" d="M21.6667 13.1334L21 12.8667L21.6 12.3334L21.6667 13.1334ZM23.4667 14.0667L23.5334 13.2L24.4667 13.7334L23.4667 14.0667ZM14.8667 19V18.7334L15.2 18.9334L14.8667 19ZM14.2667 20.4L14.6 20.4667L14.3333 20.7333L14.2667 20.4ZM12.8667 19.1334L12.8 19.8667L13.4667 19.6001L12.8667 19.1334ZM11.8667 19.8667V19.1334L12.5334 19.6001L11.8667 19.8667ZM12.6 21.2667L12.5333 21.6001L12.9334 21.4667L12.6 21.2667ZM22.0667 14.1334L22.8 14.4001L22.7333 13.4667L22.0667 14.1334ZM23.1334 12.9333L22.6 13L22.9334 13.5333L23.1334 12.9333ZM14.2 20.1334H13.9334L14.1334 19.8667L14.2 20.1334ZM14.2001 18.6V18.8L14.4001 18.6667L14.2001 18.6ZM16.8667 19.2667L17.0667 19.1334V19.4001L16.8667 19.2667ZM14.0667 21.6L13.8667 21.7333L14.0667 21.8667V21.6ZM12.8667 22.4667L13.0001 22.3334L13.0667 22.6001L12.8667 22.4667ZM15.6667 18.9334L15.7334 19.1334L15.9334 18.9334H15.6667ZM14.6 19.6667L14.4667 19.3334H14.8667L14.6 19.6667ZM17.4 18.8L17.2667 18.8667L17.4667 19L17.4 18.8ZM22.5333 14.4667L22.8 14.7334L22.4 14.8667L22.5333 14.4667ZM33.8 13.2667L34.1334 13.5334L34.2 13.1334L33.8 13.2667ZM36.2667 15.4667L35.8667 14.8667H36.2L36.6667 14.8001L36.2667 15.4667ZM38.1334 14L37.6 14.4L38.2 14.6667L38.1334 14ZM35.4 16.8667L35.7333 16.8001L35.6667 17.1334L35.4 16.8667ZM37.3334 16.8667L37.0001 17L37.2667 17.2667L37.3334 16.8667ZM36.4667 15.4667L36.7333 15.9333L36.1333 16L36.4667 15.4667ZM38.3334 15.2L38.0667 14.8L37.7334 15.2667L38.3334 15.2ZM35.4667 15.8L35.7333 16.2L35.1333 16.2667L35.4667 15.8ZM35.0667 15.0667L34.8001 14.6L34.5334 15.1334L35.0667 15.0667ZM37.2667 14.4667V15.0667L36.6667 14.7334L37.2667 14.4667ZM36.2667 17.7334L36.1334 17.5334L36 17.8L36.2667 17.7334ZM36.2 16.8667V16.5334L36.5334 16.6667L36.2 16.8667ZM35.3334 17.3334L35.0667 17.4667L35.3334 17.6667V17.3334ZM35.0667 14.9334L35.7334 14.8667L35.4 15.5334L35.0667 14.9334Z" fill="#FF593E"/>
<path fill-rule="evenodd" clip-rule="evenodd" d="M20.6001 12.3334L20.2667 12.8L19.8667 12.2L20.6001 12.3334ZM19.7334 13.1334L19.8667 12.8L20.0667 13.1334H19.7334ZM20.2667 12.9333L20.1334 13.2L20.4667 13.2666L20.2667 12.9333ZM17.4667 14.2667L17.5334 14.8667L18.2 14.5333L17.4667 14.2667ZM37.2667 14.5333L37.5334 14.9333L37.8667 14.5333H37.2667ZM37 15.4L36.5334 15.4667L36.7334 14.9333L37 15.4ZM35.0001 15.8L34.8001 15.6667L35.0001 15.4667V15.8ZM35.0667 17.2667L34.8667 17.1334L35.0667 17V17.2667ZM36.9334 16.1334L37.0667 16.5334L37.3334 16.1334H36.9334ZM37.7334 16.1333L37.4667 15.8L37.9334 15.7333L37.7334 16.1333ZM13.6 17.9333L13.4 17.6H13.8L13.6 17.9333ZM12.7334 17.1333L13.0001 17.6667L13.4001 17.0667L12.7334 17.1333ZM13.4 16.6666L12.9334 16.2L13.6 15.9333L13.4 16.6666ZM23.4001 14.2L22.7334 14.0667L22.9334 14.8L23.4001 14.2ZM22.4001 14.9333L22.9334 15.0666L22.5334 15.6L22.4001 14.9333ZM29.6667 15.1334L29.0667 15L29.2667 15.6667L29.6667 15.1334Z" fill="#FF593E"/>
<path fill-rule="evenodd" clip-rule="evenodd" d="M20.8667 12.1334L20.4667 12.3334L20.4 11.9334L20.8667 12.1334ZM19.7334 12.3334L19.9334 12.9334L19.2 12.8001L19.7334 12.3334ZM19.9334 13.0668L20.3334 13.5334L19.6667 13.7334L19.9334 13.0668ZM19.4 13.6001L19.7334 13.0667L19.0667 12.9334L19.4 13.6001ZM21.9333 12.8001L21.6 12.7334L21.8667 12.4001L21.9333 12.8001ZM21 12.8001L20.4667 12.6001L20.5333 13.2001L21 12.8001ZM22.8 12L22 12.3334L22.6667 13L22.8 12ZM12.6 21.0001V20.7334L12.9333 20.9334L12.6 21.0001ZM13.1333 17.5334L13.2667 17.8L13.4 17.5334H13.1333ZM11.5334 21.6668L11.8 21.6001L11.7334 21.8668L11.5334 21.6668ZM12.2 21.2667L12.1333 21.0001L11.9333 21.2667H12.2ZM12.8 18.9334L12.2 18.5334L12.9333 18.1334L12.8 18.9334ZM14.6 17.3334L14.8667 17.4001V17.0668L14.6 17.3334ZM12.4667 16.8667L12.8001 16.3334L13.2001 17L12.4667 16.8667ZM13.6667 18.8667L13.6 19.3334L14.1334 19.1334L13.6667 18.8667ZM13.7334 16.3334L14.2667 16.4001L13.8667 16.9334L13.7334 16.3334ZM15.1334 17.8001L14.5334 17.8667L14.8667 18.4001L15.1334 17.8001ZM13.7334 17.0667L14.3334 17.0001L14.1334 17.6001L13.7334 17.0667ZM15.7334 15.5334L15.2001 15.6L15.5334 16.1334L15.7334 15.5334ZM12.7334 18.0001L11.8001 17.8667L12.4001 16.9334L12.7334 18.0001ZM11.0667 20.1334L10.8667 20.9334L11.8667 20.7334L11.0667 20.1334ZM13.4667 19.6667L13.8667 19.5334L13.8 20.0667L13.4667 19.6667ZM12.2 20.0001L12.6667 20.1334L12.6 19.6001L12.2 20.0001ZM13.2667 21.4001L13.0001 21.5334V21.2668L13.2667 21.4001ZM12.2 21.8667L12 21.9334L12.1333 22.1334L12.2 21.8667ZM17.6667 15.9334L18 15.6668L18.0667 16.1334L17.6667 15.9334ZM17.4667 14.9334L17.1334 15.1334L17.5334 15.4L17.4667 14.9334ZM15.6 15.1334L16.1333 14.7334L16.2666 15.4668L15.6 15.1334Z" fill="#FF593E"/>
<path fill-rule="evenodd" clip-rule="evenodd" d="M19.0669 14.4666L18.8002 14.2L19.2669 14.0666L19.0669 14.4666ZM20.1335 14.8L20.0002 14.6L20.2669 14.5334L20.1335 14.8ZM18.1335 14.8L18.4002 14.6V15L18.1335 14.8ZM16.7336 16L17.0002 15.8L17.0669 16.2L16.7336 16ZM17.7336 15.6667L17.9336 15.8667L18.0669 15.6L17.7336 15.6667ZM13.3335 18.6L13.1335 18.1333L13.7335 18.2L13.3335 18.6ZM15.2003 17L15.3336 17.2L15.4669 16.9333L15.2003 17ZM19.0669 14.7333L19.2002 14.8666L19.3336 14.6666L19.0669 14.7333ZM15.3335 16.2667L15.4669 16.4667L15.6002 16.2L15.3335 16.2667ZM17.1335 15.6667L17.4002 15.4667L17.4669 15.8667L17.1335 15.6667ZM16.8669 15.4666L17.0668 15.0666H16.5335L16.8669 15.4666ZM16.6002 14.2L16.4002 14.8L15.8669 14.2H16.6002ZM18.0002 15.3334L17.8002 15.2L17.7336 15.4667L18.0002 15.3334ZM17.0669 16.2666L17.2669 16.1333L17.3336 16.4L17.0669 16.2666ZM16.2669 15.9333L16.0669 15.7333L16.0002 16.0667L16.2669 15.9333ZM12.2002 22.3333L12.0002 22.5333L11.9336 22.2L12.2002 22.3333ZM11.1336 23.7333L11.2669 23.6L11.0669 23.4666L11.1336 23.7333ZM11.5336 22.6L11.3336 22.8L11.2669 22.5334L11.5336 22.6ZM11.1335 24.2L11.3335 24.4L11.4002 24.0666L11.1335 24.2ZM11.8002 23.3333L11.4669 23.4666V23.1333L11.8002 23.3333Z" fill="#FF593E"/>
<path fill-rule="evenodd" clip-rule="evenodd" d="M15 16.8L14.6 16.4667L15.2 16.2L15 16.8ZM11.2667 21.6L10.9334 21.2667L11.4667 21.1333L11.2667 21.6ZM12.4667 23.0667L12.2 23.2V22.8667L12.4667 23.0667ZM11.2 21.6667L10.8667 22.2L11.6667 22.2667L11.2 21.6667ZM10.8667 23.0666V22.4666L11.3333 22.8L10.8667 23.0666ZM11.1334 23.8L11.0001 24L11.2667 24.0667L11.1334 23.8Z" fill="#FF593E"/>
<path fill-rule="evenodd" clip-rule="evenodd" d="M21.9999 11.8666L21.3999 11.3333L22.1999 11.0667L21.9999 11.8666ZM21.1999 13.6L21.5333 13.7333V13.3333L21.1999 13.6ZM21.5999 13.6666L22.1333 13.8L21.7332 14.2666L21.5999 13.6666ZM14.3999 15.3333L14.6666 14.7333L15.0666 15.4L14.3999 15.3333ZM14.9999 16.2L15.1333 15.9999L15.3333 16.2666L14.9999 16.2ZM14.6666 15.6666L14.4666 16.0666L14.9999 16.1333L14.6666 15.6666ZM16.5332 16.6L16.9999 16.7333L16.6665 17.1333L16.5332 16.6ZM14.7999 16.7333L14.3999 16.6666L14.4665 17.1333L14.7999 16.7333ZM20.5999 13.2666L20.5333 13.8666L21.1332 13.6666L20.5999 13.2666ZM21.1332 12.2667L20.5999 11.8L21.3999 11.5333L21.1332 12.2667ZM18.4665 13.7333L19.1332 13.8666L18.9332 13.1333L18.4665 13.7333ZM20.9999 14L21.3333 14.0667L21.0666 14.3333L20.9999 14Z" fill="#FF593E"/>
<path fill-rule="evenodd" clip-rule="evenodd" d="M21.7333 12.2001L21.2666 11.8001L21.9333 11.6001L21.7333 12.2001ZM16.7334 14.2L17 14.7334L17.4 14.2H16.7334ZM20.4667 15.6L20.6667 15.6667L20.5334 15.9334L20.4667 15.6ZM15.8 16.6667L16 16.7333L15.8667 17L15.8 16.6667ZM14.8667 14.6L15.4667 15.1334L15.7334 14.2667L14.8667 14.6ZM17.4667 17.8L17.2667 17.5334L17.6 17.4L17.4667 17.8ZM21.7333 15.4L22 15.6L22.1333 15.3334L21.7333 15.4ZM19.4667 14.6667L19.2667 14.2667L19.8 14.3334L19.4667 14.6667ZM19.9334 13.7334L19.6667 14.0667L20.1334 14.1334L19.9334 13.7334ZM19.4001 13.9334L19.2001 13.5334H19.7334L19.4001 13.9334ZM18.6 13.9334L18.8 14.3334L19.1334 14L18.6 13.9334ZM18.5334 15L18.8 15.0667L18.6001 15.2667L18.5334 15ZM19.8667 15.4L19.6 15.3333L19.6667 15.6667L19.8667 15.4ZM17.8 18L17.6 17.8L17.9333 17.6667L17.8 18ZM17.5333 16.8667L17.4667 17.0667L17.7333 17.1333L17.5333 16.8667ZM16.1334 16.2L16.2667 16.4667H15.8667L16.1334 16.2Z" fill="#FF593E"/>
<path fill-rule="evenodd" clip-rule="evenodd" d="M15.7334 16.8L16.0001 16.5333L16.0667 17L15.7334 16.8ZM16.6 18.3333V18L16.9334 18.2L16.6 18.3333Z" fill="#FF593E"/>
<path fill-rule="evenodd" clip-rule="evenodd" d="M23.8669 14.2L24.4669 14.4L24.0003 14.9333L23.8669 14.2ZM15.8003 16.5333L15.9336 16.7333L16.0669 16.4666L15.8003 16.5333ZM14.3336 17.6667L13.9336 17.9333L14.467 18.1333L14.3336 17.6667ZM15.6003 18.1334L15.3336 17.9334L15.6669 17.8L15.6003 18.1334ZM16.7336 17.2L17.0003 17.4L17.067 17.0667L16.7336 17.2ZM15.8003 18.8667L15.6003 18.6667L15.9336 18.5333L15.8003 18.8667ZM15.9336 17.1333L15.8003 17.3333H16.1336L15.9336 17.1333ZM20.0003 14.8L19.7336 14.7333L19.8003 15.0667L20.0003 14.8ZM16.267 17.9333L16.5336 18L16.3336 18.2666L16.267 17.9333Z" fill="#FF593E"/>
<path fill-rule="evenodd" clip-rule="evenodd" d="M21.6665 20.1334L21.9998 20.4L22.1331 20L21.6665 20.1334ZM23.0665 20.4667L23.2665 20.2L23.4665 20.6L23.0665 20.4667ZM23.8665 20.9334L24.1332 20.8001L23.8665 20.6001V20.9334ZM24.9999 21.2667L24.7332 21.6L24.5332 21.2L24.9999 21.2667ZM29.9998 22.3334L29.6665 22.8001L29.3998 22.2001L29.9998 22.3334ZM30.9331 22.8001L30.3331 22.0001L29.7331 22.8001H30.9331ZM29.4665 22.8001L28.6665 22.7334L29.2665 22.0001L29.4665 22.8001ZM23.5332 21.2L23.1998 20.8L23.7998 20.6L23.5332 21.2Z" fill="#AF2500"/>
<path fill-rule="evenodd" clip-rule="evenodd" d="M25.0665 18.7334L24.9332 18.4L24.7998 18.7334H25.0665ZM22.6664 18.8001L22.5331 18.5334L22.3998 18.8001H22.6664ZM28.9998 19.3334L29.2665 19.2L28.9998 19.0667V19.3334ZM21.7998 19.5334L21.9998 19.4L21.7998 19.2V19.5334ZM23.3998 21.4001L23.7998 21.0001L23.9998 21.6667L23.3998 21.4001ZM28.5998 22.0667L28.7998 22.7334L27.9332 22.6667L28.5998 22.0667ZM24.7998 21.9334L24.6665 21.2L24.0665 21.6667L24.7998 21.9334ZM25.9332 21.6L26.1998 22.2667L25.3998 22.1333L25.9332 21.6ZM24.1998 20.9333L24.3331 21.2667L23.9331 21.2L24.1998 20.9333ZM23.2664 19.4667L23.0664 19.2667L23.3331 19.2001L23.2664 19.4667ZM23.8664 19.7334L23.5331 19.6667L23.5998 20.0667L23.8664 19.7334ZM24.6664 19.4667V19.7333L24.3998 19.5333L24.6664 19.4667ZM27.7332 18.8L27.8665 19.0667L27.5998 19.1333L27.7332 18.8ZM25.1331 19.3334L25.3331 19.0667L25.4665 19.4L25.1331 19.3334ZM26.8664 22.4667L27.4665 22.6L27.3331 21.9333L26.8664 22.4667ZM23.5331 20.6L23.8664 20.0667L24.1998 20.6667L23.5331 20.6ZM27.4665 19.9334L27.3998 19.7334L27.1998 19.9334H27.4665ZM29.0664 20.6667L28.7331 21L28.5998 20.5333L29.0664 20.6667ZM27.0664 19.4L27.1998 19.5333L27.2665 19.3333L27.0664 19.4ZM26.6665 18.8667L26.5331 18.8L26.6665 18.6V18.8667ZM29.1998 22.0667L29.3332 21.4L28.5998 21.6L29.1998 22.0667ZM26.8664 22.4001L26.1998 22.3334L26.3331 21.8001L26.7331 21.6667L26.8664 22.4001Z" fill="#AF2500"/>
<path fill-rule="evenodd" clip-rule="evenodd" d="M30.1999 19.9334L30.5999 19.8L30.4665 20.2667L30.1999 19.9334ZM29.5998 20.8667L29.1332 20.6001L29.7332 20.2667L29.5998 20.8667ZM27.2665 21.6L26.7332 21.8L26.5998 21.4667L26.8665 21.1334L27.2665 21.6ZM27.7999 22.6001L27.3999 22.4001L27.9332 21.8L28.1998 22.5334L27.7999 22.6001ZM27.9332 21.2L28.3998 21.9333L28.7998 21.6667L28.9998 21.2H27.9332ZM29.3331 21.7334L29.7331 22.4668L30.3331 21.7334H29.3331ZM24.7998 21.9334L25.2665 21.4001L25.5331 22.1334L24.7998 21.9334ZM26.1331 20.6667L25.4665 20.8667L25.9332 21.4667L26.1331 20.6667Z" fill="#AF2500"/>
<path fill-rule="evenodd" clip-rule="evenodd" d="M32.7999 20.1334L33.2665 20.0001L33.0665 20.5334L32.7999 20.1334ZM27.7332 22.0667L26.9332 21.8001L27.7332 21.1334V22.0667ZM22.5332 20.9334L23.1999 21.2667L23.1332 20.6667L22.5332 20.9334ZM26.7999 20.5334L26.2665 20.7334L26.3999 20.0667L26.7999 20.5334ZM27.8665 20.1334L28.0665 20.3334L28.1999 20.0667L27.8665 20.1334ZM26.9998 20.1334L27.0665 20.4001H26.7332L26.9998 20.1334ZM25.7332 22.0001V21.6667L25.3999 21.7334L25.7332 22.0001ZM24.5998 21.0667L24.4665 20.5334L25.0665 20.6667L24.5998 21.0667Z" fill="#AF2500"/>
<path fill-rule="evenodd" clip-rule="evenodd" d="M26.1331 20.2L25.9997 20.5333L26.3331 20.4667L26.1331 20.2ZM28.133 21.1334L27.6663 20.8667L28.1997 20.4667L28.133 21.1334ZM27.3997 21.2L26.933 20.8667L27.4664 20.5333L27.3997 21.2ZM29.0664 21.5333L29.5331 21.8667L29.5997 21.2L29.0664 21.5333ZM25.2664 21.0667L25.1997 20.8L25.4664 20.8667L25.2664 21.0667ZM26.7331 21.5333L26.1331 21.6L26.1997 20.7333L26.8664 21.2667L26.7331 21.5333Z" fill="#AF2500"/>
<path fill-rule="evenodd" clip-rule="evenodd" d="M35.1333 19.2L34.9999 18.8667L35.3333 18.9334L35.1333 19.2ZM25.7333 19.4L25.9999 19.3333L25.7999 19.0667L25.7333 19.4ZM26.4 19.4667L26.5333 19.2667L26.3333 19.2L26.4 19.4667ZM25.8 19.9334L25.6666 20.1334L25.5333 19.9334H25.8ZM26.2666 21.5333L26.0666 21.6667V21.4667L26.2666 21.5333ZM24.9333 21.4667L24.8 21.2667L25.1333 21.2L24.9333 21.4667ZM22.7333 20.0667L22.6666 20.4L22.9999 20.3333L22.7333 20.0667ZM24.4667 20V20.4L24.0666 20.2L24.4667 20ZM28.6667 22.0667L28.2667 21.5334L27.9333 22.2L28.6667 22.0667ZM25.5333 20.6667V21.0001L25.1999 20.8667L25.5333 20.6667ZM22.4666 19.5334L22.6 19.8001L22.7333 19.4667L22.4666 19.5334ZM30.2 19.4667L30.0666 19.2H30.3333L30.2 19.4667ZM26.2 19.9334L26.1333 19.6667L26.4 19.7334L26.2 19.9334ZM22.4666 27.4667L21.5333 27.6667L22.1333 28.5334L22.4666 27.4667ZM29.6 20.0667H29.2667L29.4 19.7333L29.6 20.0667ZM33.0667 21.4L33.7333 21.3333L33.3333 20.7333L33.0667 21.4ZM32.7333 19.1333L32.7999 19.4L32.9999 19.2L32.7333 19.1333ZM20 28.4667L20.3333 29.1334L19.4666 29.0667L20 28.4667ZM31.7333 22.3334L31.8666 21.6667L31.1333 21.8667L31.7333 22.3334ZM30.6 21.9333L30.5334 22.2667L30.2 22L30.6 21.9333ZM30.7333 21.4667L30.8666 21.0667L30.4 21.2L30.7333 21.4667ZM22.6 23.6667L22.8 24.7334L21.8 24.2L22.6 23.6667ZM22.5333 23.6L22.2666 22.7333L21.8 23.4667L22.5333 23.6ZM20.1333 23L20.3333 23.3334H19.8666L20.1333 23ZM21.2 23L21 22.6667L20.7333 23H21.2ZM18.7333 28.9334L18.8 29.5334L18.1333 29.2667L18.7333 28.9334ZM19.0667 29.2L19.3333 29.4L19.4 29L19.0667 29.2ZM19.4 28.9334L19 28.6667L19.5333 28.3334L19.4 28.9334ZM32.4 20.8L32.6 20.4H32.0666L32.4 20.8ZM34.1333 19.1334L34.0666 19.4667L33.8 19.2001L34.1333 19.1334ZM19.6666 25.7333L19.5333 25.4L19.2666 25.6667L19.6666 25.7333ZM19.3333 23.9334L19.0666 24.0667L19.1333 23.6667L19.3333 23.9334Z" fill="#AF2500"/>
<path fill-rule="evenodd" clip-rule="evenodd" d="M31.2 20.2667L31.4666 20.5334L31.6 20.1334L31.2 20.2667ZM31.8666 20.9334L31.1333 20.6001V21.5334L31.8666 20.9334ZM30.4666 20.8001L30.2666 21.6668L29.4666 21.0668L30.4666 20.8001ZM20.4 22.3334L20.2666 22.0667L20 22.3334H20.4ZM21.7333 23.2001L22.0666 23.8667L21.2666 23.8001L21.7333 23.2001ZM20.8666 23.7335L21.2 24.4001L20.4 24.2668L20.8666 23.7335ZM32.1333 22.0001L32.7333 22.2667L32.1333 22.7334V22.0001ZM36.1333 21.5334L35.5333 21.2001L35.3999 21.9334L36.1333 21.5334ZM30.9333 21.4668L31.1999 22.0668H30.6666L30.9333 21.4668ZM19.7333 24.0001L19.5333 24.1334L19.7333 24.3334V24.0001ZM20.2 25.3334L20.3333 25.4668L20.1333 25.5334L20.2 25.3334ZM17.5333 26.4001L17.6666 26.2001H17.4L17.5333 26.4001ZM19.0666 22.6001L18.9333 22.8001L18.7999 22.6001H19.0666ZM19.4666 21.6667L19.5999 21.4667L19.3333 21.4001L19.4666 21.6667ZM18.6666 25.7335L18.8666 25.9335L18.6 26.0668L18.6666 25.7335ZM19.7333 25.0001L19.4667 24.8001L19.3333 25.2001L19.7333 25.0001ZM17.5333 26.7334L17.4 26.9334L17.2666 26.7334H17.5333ZM19.5999 29.8001L19.8666 30.4001L19.1333 30.3334L19.5999 29.8001ZM21.4666 25.9334L21.1333 25.7334L21.0666 26.2001L21.4666 25.9334ZM21.8 25.7335L22.3333 26.0668L21.7333 26.4001L21.8 25.7335ZM22.5333 27.0001L21.9333 26.8001L22.0666 27.5334L22.5333 27.0001ZM33.6666 22.0667L33.4666 22.3334L33.3332 22.0001L33.6666 22.0667ZM33.8666 22.4668L34.2666 22.3334L33.7332 22.1334L33.8666 22.4668ZM30.9333 21.0001L30.4666 20.8668L30.8666 20.4668L30.9333 21.0001Z" fill="#AF2500"/>
<path fill-rule="evenodd" clip-rule="evenodd" d="M24.6001 20.0001L25.1335 20.2001L25.0668 19.5334L24.6001 20.0001ZM31.1334 19.9334L31.5334 20.0667L31.4667 19.6001L31.1334 19.9334ZM33.8667 22.2L33.4667 21.6667L34.2001 21.6L33.8667 22.2Z" fill="#AF2500"/>
<path fill-rule="evenodd" clip-rule="evenodd" d="M33.9335 20.6668L33.8001 20.4668L33.6668 20.6668H33.9335ZM33.7335 21.8667L34.1335 21.3334L34.4002 22L33.7335 21.8667ZM31.8001 22.2667L32.2001 22.4001L31.8668 22.6667L31.8001 22.2667ZM32.7335 22.6667L33.5335 22.5334L33.2668 22L32.7335 22.6667ZM31.8001 22.8001H31.0001L31.1334 22L31.8001 22.8001ZM20.6668 22.8L20.5335 22.5334L20.2668 22.8H20.6668ZM21.7335 25.8667L21.5335 26V25.6667L21.7335 25.8667ZM20.9335 21.7334L21.1335 21.5334L20.8001 21.4668L20.9335 21.7334ZM20.9334 22.3334L20.7334 22.2L21.0001 22.0667L20.9334 22.3334ZM22.0668 24.6001L21.4002 24.4667L21.6668 25.2667L22.0668 24.6001ZM20.2668 26.8667L20.6001 26.8001L20.4668 27.1334L20.2668 26.8667ZM22.6001 26.8001L22.6668 26.1334L21.9335 26.4001L22.6001 26.8001ZM20.4668 24.5334L20.6668 25.0001L20.0668 24.9334L20.4668 24.5334ZM21.3335 27.4667L21.8002 27.2667L21.4002 26.8001L21.3335 27.4667ZM20.3335 26.2667L19.8668 26.6001L19.8002 25.9334L20.3335 26.2667ZM21.0001 26.9334L21.4001 26.6001L20.8668 26.3334L21.0001 26.9334ZM20.8668 28.6001L20.4001 28.9334L20.3335 28.2668L20.8668 28.6001ZM22.8001 24.9334L21.8668 25.3334L22.7334 26.0667L22.8001 24.9334ZM21.8668 21.8667L22.2001 22.6667L21.2001 22.6L21.8668 21.8667ZM20.0668 24.5334L20.4001 24.2001L19.9334 24.0001L20.0668 24.5334ZM20.8668 23.4001L21.3335 23.2668L21.2668 23.8668L20.8668 23.4001ZM20.0668 22.6001L19.8668 22.3334L19.7335 22.6001H20.0668ZM20.6001 21.4667L20.4001 21.6667L20.3335 21.4L20.6001 21.4667ZM17.7334 28.9334L17.9334 28.5334H17.4668L17.7334 28.9334ZM19.4001 29.9334L19.2668 30.2667L19.0001 29.9334H19.4001ZM20.4668 29.8L20.8001 29.2001H20.0001L20.4668 29.8ZM18.3334 28.8001L18.2001 29.1334L18.0001 28.8001H18.3334ZM19.2001 29.2667L19.3334 29.0001H19.0001L19.2001 29.2667ZM19.2001 27.8667L19.4668 28L19.2668 28.2L19.2001 27.8667ZM21.4668 25.3334L21.0001 25.0001L20.8668 25.6001L21.4668 25.3334ZM20.0001 27.2668L20.2001 27.4001L20.0001 27.5334V27.2668ZM34.7335 20.4668L34.8668 20.6668H34.6002L34.7335 20.4668ZM35.0668 21.2001L34.8668 20.9334L34.6001 21.2667L35.0668 21.2001ZM20.2001 28.0001L20.4668 28.0667L20.2001 28.2667V28.0001ZM19.0001 29.8001L19.1335 29.4667H18.8001L19.0001 29.8001ZM19.5335 30.0001L19.4668 29.5334L20.0002 29.7334L19.5335 30.0001Z" fill="#AF2500"/>
<path fill-rule="evenodd" clip-rule="evenodd" d="M20.3334 19.8667L20.6001 19.9334L20.4001 20.1334L20.3334 19.8667ZM21.1334 20.4L21.2001 20.1333L21.4001 20.3333L21.1334 20.4ZM20.2668 20.9333L20.2001 21.2667L20.5335 21.2L20.2668 20.9333ZM19.9334 28.6L20.0668 28.8667H19.8001L19.9334 28.6ZM18.8001 29.1334L18.9334 28.9334H18.6001L18.8001 29.1334ZM20.4667 30.2667L20.3334 29.6667L21.0667 29.8667L20.4667 30.2667ZM19.0668 29.9334H18.8001L19.0001 29.6667L19.0668 29.9334ZM20.8001 20.8667L20.7335 21.1334L21.0001 21.0667L20.8001 20.8667ZM20.8001 20.4L20.6667 20.6667H21.0001L20.8001 20.4ZM21.5335 23L21.6668 22.8L21.8668 23.0667L21.5335 23ZM21.7335 21.6667L21.3335 21.5334L21.4001 22.0667L21.7335 21.6667ZM21.4668 20.9333L21.6668 21.6L20.8668 21.4L21.4668 20.9333Z" fill="#AF2500"/>
<path fill-rule="evenodd" clip-rule="evenodd" d="M21.4668 20.4667V20.9334L21.0668 20.6667L21.4668 20.4667ZM20.4668 27.4667L21.0002 27.5334L20.6002 28.0667L20.4668 27.4667Z" fill="#AF2500"/>
<path fill-rule="evenodd" clip-rule="evenodd" d="M33.3332 19.5334L33.5998 19.6001V19.3334L33.3332 19.5334ZM32.8665 21.2L32.5999 21.0667L32.7999 20.8L32.8665 21.2ZM32.2665 21.4667L31.7331 21.2667L32.1998 20.8667L32.2665 21.4667ZM20.6665 27.4001L21.1332 27.2667L20.7332 26.8667L20.6665 27.4001ZM21.3332 27.7334L20.7999 28L21.3332 28.2667V27.7334ZM20.4665 28.0667L20.7332 27.9333V28.2L20.4665 28.0667ZM21.0665 28.7333L21.7332 28.4L21.7998 29.0667L21.0665 28.7333ZM19.2665 28.4001L18.7331 28.5334L18.8665 28.0001L19.2665 28.4001ZM32.7998 21.8L32.3998 21.6V22.0667L32.7998 21.8ZM33.3332 21.4L33.1332 22L32.5998 21.5334L33.3332 21.4ZM35.3331 22L34.7331 21.5334V22.2L35.3331 22ZM19.8665 27.9334L19.5999 28L19.6665 27.7334L19.8665 27.9334ZM20.4665 30.2667L20.0665 29.8001L19.7998 30.4001L20.4665 30.2667ZM20.9332 28.9334L21.7332 29.2001L20.9998 29.8001L20.9332 28.9334ZM18.1332 27.8667L17.7998 27.8001L17.9332 28.1334L18.1332 27.8667ZM32.0665 19.4667L32.2665 19.6667L31.9332 19.7334L32.0665 19.4667ZM36.2664 21.4667V20.7333L35.5331 21.1333L36.2664 21.4667ZM35.8665 20.8667L35.2665 20.6667L35.8665 20.2667V20.8667Z" fill="#AF2500"/>
<path fill-rule="evenodd" clip-rule="evenodd" d="M38.6666 18.1334L38.5333 17.9334L38.8666 17.8667L38.6666 18.1334ZM36.6666 18.6667L36.4665 18.4667L36.7332 18.3334L36.6666 18.6667ZM35.3332 20L34.9332 20.2L35.3332 20.5333V20ZM35.9999 20.9334L36.5332 21.1334L36.4666 20.4667L35.9999 20.9334ZM36.0666 20.0001L36.3999 19.8667L36.1332 19.6001L36.0666 20.0001ZM36.9332 19.6667L36.5999 19.8667L36.9999 20.0667L36.9332 19.6667ZM38.5332 18.7334L38.3332 19.2001L37.9999 18.7334H38.5332ZM36.7332 21L37.3332 20.4L36.3999 20.0667L36.7332 21ZM37.1999 19.5334L37.9999 19.6667L37.3999 20.4L37.1999 19.5334ZM37.7999 19.2667L38.0665 19.4667L38.1332 19.0667L37.7999 19.2667ZM36.9332 19.5333L36.4666 19.4667L36.7332 19L36.9332 19.5333ZM37.3999 18.8001L37.7999 18.8667L37.5999 18.4001L37.3999 18.8001ZM38.4666 18.2L38.7332 18.4L38.3999 18.5334L38.4666 18.2ZM34.5999 21.0667L34.5333 20.6667L34.1333 21L34.5999 21.0667ZM34.1999 21.2667L33.9332 21.6L33.7332 21.1334L34.1999 21.2667ZM34.5999 21.8667L34.4666 21.4667L34.1333 21.7334L34.5999 21.8667ZM35.1332 21.0667L35.1999 21.4667L34.7332 21.4L35.1332 21.0667ZM35.3999 19.5334L35.6666 19.6667V19.3334L35.3999 19.5334ZM34.3999 20L34.1999 19.9334L34.3999 19.6667V20ZM17.7332 27.8L17.3999 27.7333L17.4666 28.0667L17.7332 27.8ZM17.9332 28.5334L18.1999 28.4V28.6667L17.9332 28.5334ZM19.5333 28.4L19.7999 28.5334L19.8666 28.2L19.5333 28.4ZM18.3333 26.8667L18.5333 27.1334L18.1333 27.2L18.3333 26.8667ZM20.3332 28.0667L20.4665 27.7334L20.0665 27.6667L20.3332 28.0667ZM19.6665 27.9333L19.9332 28.0667L19.7332 28.2667L19.6665 27.9333ZM20.6666 26.3334L20.7999 25.9334L20.3332 26.0001L20.6666 26.3334ZM19.3333 26.5333L19.6666 26.6L19.3999 26.9334L19.3333 26.5333ZM18.7332 27.9334L18.3999 27.8667L18.5332 28.2L18.7332 27.9334ZM18.7332 26.0667L19.0666 26.1333L18.7999 26.4L18.7332 26.0667ZM19.5333 27.6001L19.4666 27.4001L19.1999 27.5334L19.5333 27.6001ZM22.4666 20.8667L21.8666 20.6001L22.3999 20.4001L22.4666 20.8667ZM33.9999 20.4667L34.1999 20.5333V20.2667L33.9999 20.4667ZM18.7999 27.0667L18.5999 27.1334V26.8001L18.7999 27.0667Z" fill="#AF2500"/>
<path d="M34.9997 33.4C33.7997 33.4 32.7997 31.7334 32.7997 29.8667C32.7997 28 33.7997 26.3334 34.9997 26.3334C35.1997 26.3334 35.4664 26.4 35.6664 26.4667V25.7334C35.4664 25.6667 35.2664 25.6 35.0664 25.6C33.4664 25.6 32.1997 27.5334 32.1997 29.8667C32.1997 32.2 33.4664 34.1334 35.0664 34.1334H35.333L35.3997 33.4667C35.1997 33.3334 35.0664 33.4 34.9997 33.4V33.4Z" fill="white"/>
<path d="M37.8664 29.8C37.8664 27.8 36.933 26.0667 35.5997 25.6667V26.4C36.4664 26.8667 37.133 28.2 37.133 29.8C37.133 31.5334 36.333 33 35.2664 33.2667L35.1997 33.9334C36.733 33.8 37.8664 32 37.8664 29.8V29.8Z" fill="#CCCCCC"/>
</g>
<defs>
<linearGradient id="paint0_linear_35_103787" x1="21.262" y1="48.9277" x2="26.8703" y2="44.2639" gradientUnits="userSpaceOnUse">
<stop stop-color="#BC5A32" stop-opacity="0.01"/>
<stop offset="0.99" stop-color="#BC5A32"/>
</linearGradient>
<linearGradient id="paint1_linear_35_103787" x1="31.178" y1="24.8875" x2="30.1026" y2="18.9914" gradientUnits="userSpaceOnUse">
<stop stop-color="#BC5A32" stop-opacity="0.01"/>
<stop offset="0.99" stop-color="#BC5A32"/>
</linearGradient>
<linearGradient id="paint2_linear_35_103787" x1="17.366" y1="34.782" x2="17.609" y2="31.2313" gradientUnits="userSpaceOnUse">
<stop stop-color="#CC7A5E" stop-opacity="0.01"/>
<stop offset="0.924" stop-color="#AA5F4B"/>
</linearGradient>
</defs>
</svg>
