<svg width="40" height="40" viewBox="0 0 40 40" fill="none" xmlns="http://www.w3.org/2000/svg">
<path fill-rule="evenodd" clip-rule="evenodd" d="M3 34.54C3 34.94 3.26038 35.28 3.64093 35.48C3.78114 35.56 4.22178 35.56 7.38638 35.56H10.9516L11.0117 35.44C11.0117 35.38 11.4323 32.66 11.953 29.4C12.4738 26.14 12.9345 23.34 13.0146 23.2C13.1948 22.54 13.6154 22 14.1362 21.7C14.657 21.42 14.8572 21.4 17.4811 21.4C20.8059 21.4 22.0277 21.28 23.7702 20.86C28.8176 19.6 31.7819 16.12 32.7833 10.26C33.6846 5 31.2811 1.5 26.0335 0.4C25.6666 0.31674 25.3891 0.250811 25.1091 0.198605C24.0437 0 22.9413 0 16.74 0H9.6697L9.36927 0.12C9.00874 0.26 8.54807 0.64 8.36781 1C8.2276 1.36 3 34 3 34.54ZM12.1333 39.3C12.1733 39.52 12.4337 39.84 12.654 39.94C12.7742 40 13.4352 40 16.0189 40H19.1435L19.3638 39.86C19.6843 39.7 19.9647 39.42 20.1049 39.1C20.185 38.9 20.3853 37.8 20.9261 34.4C21.6188 30.1256 21.6815 29.689 21.9242 29.4077C21.9552 29.3719 21.9891 29.3385 22.0277 29.3C22.485 29.0021 22.5278 29 24.0965 28.9217L24.1307 28.92C26.5342 28.86 27.8962 28.64 29.5186 28.08C33.3241 26.78 35.7677 23.74 36.689 19.16C37.4701 15.32 36.7691 12.44 34.7061 10.88C34.5459 10.76 34.4057 10.66 34.4057 10.68C34.3857 10.68 34.3055 11.06 34.2254 11.5C32.8234 18.1 28.7975 21.92 22.2881 22.82C21.1953 22.9864 20.6335 22.999 18.4646 23.0474C18.288 23.0513 18.1008 23.0555 17.9017 23.06C14.937 23.0797 14.9368 23.08 14.6872 23.4067C14.6838 23.4111 14.6804 23.4155 14.677 23.42C14.6687 23.4314 14.6609 23.4418 14.6534 23.4525C14.5156 23.6482 14.4748 23.9123 13.335 31.12C12.1279 38.7906 12.0732 39.023 12.1185 39.234C12.1229 39.2541 12.1281 39.2739 12.1333 39.3Z" fill="black"/>
</svg>
